<?xml version="1.0" encoding="UTF-8"?>
<svg width="310px" height="46px" viewBox="0 0 310 46" version="1.1" xmlns="http://www.w3.org/2000/svg" xmlns:xlink="http://www.w3.org/1999/xlink">
    <!-- Generator: Sketch 43.2 (39069) - http://www.bohemiancoding.com/sketch -->
    <title>brianhhall--logo</title>
    <desc>Created with Sketch.</desc>
    <defs></defs>
    <g id="Page-1" stroke="none" stroke-width="1" fill="none" fill-rule="evenodd">
        <g id="brianhhall--logo" fill="#FFFFFF">
            <g id="Combined-Shape">
                <path d="M0.34,2.46 L15.64,2.46 C23.92,2.46 28.6,7.32 28.6,13.92 C28.6,18.3 25.96,21.84 22.42,23.04 C26.56,24.06 29.92,27.84 29.92,33.12 C29.92,40.02 24.76,45 16.78,45 L0.34,45 L0.34,2.46 Z M8.5,20.04 L14.38,20.04 C18.16,20.04 20.44,17.94 20.44,14.7 C20.44,11.46 18.34,9.42 14.32,9.42 L8.5,9.42 L8.5,20.04 Z M8.5,38.1 L15.22,38.1 C19.24,38.1 21.64,36 21.64,32.58 C21.64,29.22 19.48,26.88 15.34,26.88 L8.5,26.88 L8.5,38.1 Z M54.34,15.36 C53.74,15.3 53.14,15.24 52.48,15.24 C49.96,15.24 45.88,15.96 44.08,19.86 L44.08,15.48 L36.34,15.48 L36.34,45 L44.32,45 L44.32,31.5 C44.32,25.14 47.86,23.16 51.94,23.16 C52.66,23.16 53.44,23.22 54.34,23.4 L54.34,15.36 Z M67.78,45 L67.78,15.48 L59.8,15.48 L59.8,45 L67.78,45 Z M58.84,5.82 C58.84,8.46 61.06,10.68 63.76,10.68 C66.52,10.68 68.68,8.46 68.68,5.82 C68.68,3.06 66.52,0.84 63.76,0.84 C61.06,0.84 58.84,3.06 58.84,5.82 Z M74.5,36.96 C74.5,31.68 78.4,28.74 83.32,28.02 L90.58,26.94 C92.26,26.7 92.8,25.86 92.8,24.84 C92.8,22.74 91.18,21 87.82,21 C84.34,21 82.42,23.22 82.18,25.8 L75.1,24.3 C75.58,19.68 79.84,14.58 87.76,14.58 C97.12,14.58 100.6,19.86 100.6,25.8 L100.6,40.32 C100.6,41.88 100.78,43.98 100.96,45 L93.64,45 C93.46,44.22 93.34,42.6 93.34,41.46 C91.84,43.8 89.02,45.84 84.64,45.84 C78.34,45.84 74.5,41.58 74.5,36.96 Z M86.32,39.9 C89.68,39.9 92.8,38.28 92.8,33.06 L92.8,31.74 L86.14,32.76 C84.1,33.06 82.48,34.2 82.48,36.48 C82.48,38.22 83.74,39.9 86.32,39.9 Z M116.62,28.02 L116.62,45 L108.64,45 L108.64,15.48 L116.38,15.48 L116.38,19.14 C118.18,16.08 121.72,14.7 124.9,14.7 C132.22,14.7 135.58,19.92 135.58,26.4 L135.58,45 L127.6,45 L127.6,27.78 C127.6,24.48 125.98,21.9 122.14,21.9 C118.66,21.9 116.62,24.6 116.62,28.02 Z M242.32,45 L233.98,45 L233.98,27.36 L214.44,27.36 L214.44,45 L206.16,45 L206.16,2.46 L214.44,2.46 L214.44,19.5599976 L233.98,19.56 L233.98,2.46 L242.32,2.46 L242.32,45 Z M250.64,36.96 C250.64,31.68 254.54,28.74 259.46,28.02 L266.72,26.94 C268.4,26.7 268.94,25.86 268.94,24.84 C268.94,22.74 267.32,21 263.96,21 C260.48,21 258.56,23.22 258.32,25.8 L251.24,24.3 C251.72,19.68 255.98,14.58 263.9,14.58 C273.26,14.58 276.74,19.86 276.74,25.8 L276.74,40.32 C276.74,41.88 276.92,43.98 277.1,45 L269.78,45 C269.6,44.22 269.48,42.6 269.48,41.46 C267.98,43.8 265.16,45.84 260.78,45.84 C254.48,45.84 250.64,41.58 250.64,36.96 Z M262.46,39.9 C265.82,39.9 268.94,38.28 268.94,33.06 L268.94,31.74 L262.28,32.76 C260.24,33.06 258.62,34.2 258.62,36.48 C258.62,38.22 259.88,39.9 262.46,39.9 Z M292.76,45 L284.78,45 L284.78,1.56 L292.76,1.56 L292.76,45 Z M309.26,45 L301.28,45 L301.28,1.56 L309.26,1.56 L309.26,45 Z"></path>
            </g>
            <path d="M170,40 C161.715729,40 155,33.2842712 155,25 C155,16.7157288 161.715729,10 170,10 C178.284271,10 185,16.7157288 185,25 C185,33.2842712 178.284271,40 170,40 Z M172.833132,25.7544831 L172.087193,30.2949659 L170.610635,30.3501756 L170.413539,30.3575667 L170.374858,30.550971 C170.348539,30.6825638 170.328112,30.802697 170.293094,31.0233081 C170.250533,31.2914457 170.23812,31.3668056 170.214285,31.4939279 L170.158771,31.79 L170.460003,31.79 C170.759745,31.79 170.998858,31.7877155 171.633052,31.7799814 C171.83853,31.7774824 171.83853,31.7774824 172.044913,31.7751707 C172.364313,31.7717363 172.620595,31.77 172.860003,31.77 L175.284954,31.77 L175.325148,31.569029 C175.400405,31.1927469 175.451828,30.9029064 175.48781,30.6330409 L175.524041,30.3613097 L174.055033,30.3017553 L175.885402,19.7434192 L177.071355,19.6897421 L177.269219,19.6807483 L177.305721,19.4860721 C177.359008,19.2018766 177.396493,18.9436455 177.448073,18.5310087 L177.483199,18.25 L177.200003,18.25 C176.950849,18.25 176.764904,18.2520893 176.201482,18.2600248 C175.904939,18.2642015 175.73743,18.2663083 175.553005,18.2679297 C175.39792,18.2692931 175.255352,18.27 175.120003,18.27 L172.435052,18.27 L172.394858,18.470971 C172.317514,18.8576885 172.267643,19.1433142 172.231934,19.4289913 L172.197639,19.7033479 L173.864262,19.7430294 L173.080687,24.273863 L167.090964,24.273863 L167.885057,19.7440503 L169.389033,19.6898369 L169.586414,19.6827026 L169.625148,19.489029 C169.700405,19.1127469 169.751828,18.8229064 169.78781,18.5530409 L169.825549,18.27 L164.715052,18.27 L164.674858,18.470971 C164.584665,18.9219342 164.544528,19.1259636 164.494285,19.3939279 L164.44113,19.6774206 L165.846943,19.7376698 L164.087359,30.2951761 L162.888477,30.3502658 L162.693196,30.3592788 L162.654858,30.550971 C162.604592,30.8023013 162.564475,31.0129163 162.474285,31.4939279 L162.418771,31.79 L162.720003,31.79 C162.995265,31.79 163.222171,31.7876728 163.810771,31.7799786 C163.925638,31.7784791 163.925638,31.7784791 164.040728,31.7770205 C164.421251,31.7722639 164.688678,31.77 164.940003,31.77 C165.185553,31.77 165.450148,31.7717396 165.779621,31.7751716 C165.992679,31.7774834 165.992679,31.7774834 166.204545,31.7799825 C166.863041,31.7877753 167.100708,31.79 167.400003,31.79 L167.607485,31.79 L167.645721,31.5860721 C167.736556,31.1016182 167.773689,30.8889485 167.80781,30.6330409 L167.844304,30.3593378 L166.055477,30.2997103 L166.8416,25.7732066 L172.833132,25.7544831 Z" id="Combined-Shape"></path>
        </g>
    </g>
</svg>